<svg xmlns="http://www.w3.org/2000/svg" viewBox="0 -0.5 16 16" shape-rendering="crispEdges">
<metadata>Made with Pixels to Svg https://codepen.io/shshaw/pen/XbxvNj</metadata>
<path stroke="#ffffff" d="M0 0h5M10 0h2M15 0h1M0 1h4M0 2h3M0 3h3M15 3h1M0 4h2M15 4h1M0 5h2M15 5h1M0 6h3M14 6h2M0 7h4M14 7h2M0 8h2M13 8h3M0 9h1M15 9h1M0 12h1M15 12h1M15 13h1M9 14h3M14 14h2M0 15h1M3 15h1M7 15h9" />
<path stroke="#292829" d="M5 0h5M12 0h3M4 1h1M10 1h2M15 1h1M3 2h1M12 2h1M15 2h1M3 3h3M8 3h1M10 3h3M14 3h1M2 4h1M5 4h2M8 4h1M14 4h1M2 5h1M5 5h2M9 5h1M14 5h1M3 6h2M8 6h6M4 7h2M13 7h1M2 8h1M10 8h1M12 8h1M1 9h3M11 9h4M0 10h1M4 10h1M7 10h1M12 10h1M15 10h1M0 11h1M4 11h1M6 11h1M11 11h1M15 11h1M1 12h1M3 12h3M11 12h1M14 12h1M0 13h1M4 13h1M9 13h3M14 13h1M0 14h1M3 14h1M7 14h2M12 14h2M1 15h2M4 15h3" />
<path stroke="#a50000" d="M5 1h2M4 2h2M8 8h1M4 9h1M9 9h1M5 10h2M5 11h1" />
<path stroke="#ce0018" d="M7 1h1M6 2h6M13 3h1M13 4h1M13 5h1M12 7h1M3 8h1M5 8h1M9 8h1M11 8h1M6 9h1M10 9h1" />
<path stroke="#ff2039" d="M8 1h2M4 8h1M5 9h1" />
<path stroke="#ef6152" d="M12 1h1M13 2h2M6 3h2M9 3h1M3 5h2M10 5h3M5 6h2M6 7h6M3 10h1M3 11h1" />
<path stroke="#f7925a" d="M13 1h2M3 4h2M7 4h1M9 4h2M12 4h1M7 5h2M7 6h1M1 11h2" />
<path stroke="#ffba84" d="M11 4h1M1 10h2" />
<path stroke="#294984" d="M6 8h1M7 9h1M7 12h4M6 13h3M4 14h3" />
<path stroke="#3971ad" d="M7 8h1M8 9h1M7 11h4M6 12h1M5 13h1" />
<path stroke="#fffbff" d="M8 10h1M11 10h1" />
<path stroke="#4a9ad6" d="M9 10h2" />
<path stroke="#f7cb31" d="M13 10h1M12 11h1" />
<path stroke="#ad5100" d="M14 10h1M13 11h2M2 12h1M13 12h1M1 13h2M13 13h1M1 14h1" />
<path stroke="#e78231" d="M12 12h1M3 13h1M12 13h1M2 14h1" />
</svg>