<svg xmlns="http://www.w3.org/2000/svg" viewBox="0 -0.5 22 22" shape-rendering="crispEdges">
<metadata>Made with Pixels to Svg https://codepen.io/shshaw/pen/XbxvNj</metadata>
<path stroke="#ffffff" d="M0 0h15M17 0h5M0 1h14M18 1h4M0 2h13M19 2h3M0 3h10M19 3h3M0 4h8M18 4h4M0 5h7M18 5h4M0 6h6M17 6h5M0 7h5M18 7h4M0 8h5M17 8h5M0 9h4M17 9h5M0 10h4M18 10h4M0 11h4M18 11h4M0 12h5M17 12h5M0 13h4M16 13h6M0 14h3M14 14h8M0 15h3M15 15h7M0 16h3M18 16h4M0 17h4M19 17h3M0 18h4M19 18h3M0 19h4M18 19h4M0 20h4M8 20h1M13 20h1M18 20h4M0 21h5M7 21h8M17 21h5" />
<path stroke="#8c5918" d="M15 0h2M14 1h1M17 1h1M13 2h1M18 2h1M18 3h1M17 4h1M16 5h1M6 9h1M15 9h2M6 10h1M17 10h1M17 11h1M4 13h3M8 13h1M3 14h2M7 14h1M9 14h4M3 15h1M8 15h1M3 16h1M8 16h1M4 17h1M7 17h1M5 18h2M16 18h1M5 19h1M15 19h1M5 20h1M15 20h1" />
<path stroke="#fffbff" d="M15 1h2M14 2h4M15 3h3M16 4h1M14 5h1M5 14h2M4 15h4M4 16h4M11 16h2M14 16h1M5 17h2M11 17h2M14 17h1" />
<path stroke="#520000" d="M10 3h5M8 4h2M15 4h1M7 5h1M15 5h1M17 5h1M6 6h1M5 7h1M5 8h1M16 8h1M4 9h1M4 10h1M4 11h1" />
<path stroke="#ff4173" d="M10 4h3M14 4h1M8 5h2M8 6h1M9 15h1" />
<path stroke="#ffdb73" d="M13 4h1M13 5h1M16 17h1M6 20h1" />
<path stroke="#b52863" d="M10 5h2M7 6h1M9 6h2M6 7h3M15 8h1M7 13h1M8 14h1" />
<path stroke="#dea239" d="M12 5h1" />
<path stroke="#000000" d="M11 6h6M9 7h9M7 8h3M11 8h1M13 8h1M8 9h1M11 9h1M13 9h1M8 10h2M5 11h1M8 11h1M11 11h1M5 12h2M10 12h7M12 13h4M16 16h2M15 17h1M17 17h2M4 18h1M15 18h1M17 18h2M4 19h1M14 19h1M16 19h2M4 20h1M7 20h1M14 20h1M16 20h2M5 21h2M15 21h2" />
<path stroke="#ffd3c6" d="M6 8h1M5 9h1M7 9h1M10 9h1M12 9h1M14 9h1M7 10h1M10 10h7M7 11h1M9 11h2M9 12h1" />
<path stroke="#ff716b" d="M10 8h1M12 8h1M14 8h1M9 9h1M5 10h1M6 11h1M12 11h5M7 12h2M9 13h3" />
<path stroke="#21308c" d="M13 14h1M14 15h1M15 16h1M14 18h1M6 19h3M13 19h1M9 20h4" />
<path stroke="#42829c" d="M10 15h2M9 16h2M8 17h3M7 18h6M9 19h4" />
<path stroke="#84dbce" d="M12 15h2M13 16h1M13 17h1M13 18h1" />
</svg>